<svg id="Ebene_1" data-name="Ebene 1" xmlns="http://www.w3.org/2000/svg" viewBox="0 0 435.04 179.76"><defs><style>.cls-1,.cls-2,.cls-3{fill:none;stroke:#3e74a1;stroke-linecap:round;stroke-miterlimit:10;stroke-width:3px;}.cls-2{stroke-dasharray:0.1 9.65;}.cls-3{stroke-dasharray:0.1 10.2;}.cls-4{fill:#1d1d1b;}.cls-5{fill:#f9b225;}.cls-6{fill:#3e74a1;}</style></defs><line class="cls-1" x1="124.67" y1="27.23" x2="124.62" y2="27.23"/><line class="cls-2" x1="114.96" y1="27.23" x2="32.03" y2="27.23"/><polyline class="cls-1" points="27.21 27.23 27.16 27.23 27.16 27.28"/><line class="cls-3" x1="27.16" y1="37.48" x2="27.16" y2="135.42"/><line class="cls-1" x1="27.16" y1="140.52" x2="27.16" y2="140.57"/><path class="cls-4" d="M296.89,148.82H311.3v60.5h27.89v11.32h-42.3Z" transform="translate(-212.21 -61.13)"/><path class="cls-4" d="M348.86,194.51q.09-13.27,8-20.69,7.72-7.31,19.66-7.4,12.13.09,19.86,7.4t7.92,20.69q0,11.63-7.2,19.34t-20.58,8q-13.17-.21-20.38-8T348.86,194.51Zm14.41-1.65a22.9,22.9,0,0,0,.2,3.09c.13,1.17.31,2.26.52,3.29a20.34,20.34,0,0,0,2.05,6,11.58,11.58,0,0,0,4.12,4.22,10.74,10.74,0,0,0,6.38,1.75,12.57,12.57,0,0,0,6.69-1.65,11.48,11.48,0,0,0,4.11-4.22,17,17,0,0,0,2.06-6,40.86,40.86,0,0,0,.52-6.48,19,19,0,0,0-3.19-11q-3.41-4.64-10.19-4.73c-4.39.06-7.68,1.68-9.88,4.83A18,18,0,0,0,363.27,192.86Z" transform="translate(-212.21 -61.13)"/><path class="cls-4" d="M431.58,160.14H411V148.82h55.57v11.32H446v60.5h-14.4Z" transform="translate(-212.21 -61.13)"/><path class="cls-4" d="M480.86,148.82h14.41v60.5h27.89v11.32h-42.3Z" transform="translate(-212.21 -61.13)"/><path class="cls-4" d="M538.59,170.43a46.16,46.16,0,0,1,18.42-4q23.16-.31,22.84,22.33v6.79q0,7.71.21,13.27.21,5.87.62,11.83H568.54a65.34,65.34,0,0,1-.62-7.92h-.21a17,17,0,0,1-6.89,6.69,19.49,19.49,0,0,1-9.47,2.47,21.32,21.32,0,0,1-12.66-4.12q-5.76-4-5.86-11.63a16.18,16.18,0,0,1,2.67-9.67,14.89,14.89,0,0,1,6.39-5.45,29.22,29.22,0,0,1,8.74-2.57,82,82,0,0,1,9-.52h7.62q0-6.37-2.88-8.95t-9.06-2.47A26.6,26.6,0,0,0,539,182.26ZM546,205.31a5.24,5.24,0,0,0,2.57,4.84,10.6,10.6,0,0,0,6.18,1.65q6.38-.11,9.67-4.74a19.08,19.08,0,0,0,2.88-10.91H559a14.8,14.8,0,0,0-2.47.21,20.21,20.21,0,0,0-5,1.23,8.77,8.77,0,0,0-3.8,2.78A7.16,7.16,0,0,0,546,205.31Z" transform="translate(-212.21 -61.13)"/><path class="cls-4" d="M598.58,167.65h13.07v7.2h.21a20.61,20.61,0,0,1,17.39-8.43q9.36.09,13.79,5.86,4.22,5.76,4.21,14.92v33.44H633.47V192.35c0-1.72,0-3.47-.11-5.25a13.46,13.46,0,0,0-1-4.84,7.53,7.53,0,0,0-2.57-3.81,9.15,9.15,0,0,0-5.25-1.33,9.43,9.43,0,0,0-6,1.75,13.69,13.69,0,0,0-3.71,4.42A20.32,20.32,0,0,0,613,189a29.64,29.64,0,0,0-.62,5.76v25.93H598.58Z" transform="translate(-212.21 -61.13)"/><path class="cls-5" d="M212.21,238.45V188.22a2.44,2.44,0,0,1,2.44-2.44h50.23a2.44,2.44,0,0,1,2.44,2.44v50.23a2.44,2.44,0,0,1-2.44,2.44H214.65A2.44,2.44,0,0,1,212.21,238.45Z" transform="translate(-212.21 -61.13)"/><path class="cls-6" d="M312.29,113.8V63.57a2.44,2.44,0,0,1,2.44-2.44H365a2.44,2.44,0,0,1,2.44,2.44V113.8a2.44,2.44,0,0,1-2.44,2.44H314.73A2.44,2.44,0,0,1,312.29,113.8Z" transform="translate(-212.21 -61.13)"/></svg>